<svg width="135" height="29" xmlns="http://www.w3.org/2000/svg" class="css-ox6aos-MegaMenu"><path d="M31.47 6.657v2.088a8.016 8.016 0 100 11.686v1.765h2.532V6.657h-2.531zm-5.483 13.41a5.478 5.478 0 110-10.956 5.478 5.478 0 010 10.955zm32.175-13.41v2.088a8.016 8.016 0 100 11.686v1.765h2.531V6.657h-2.53zm-5.485 13.41a5.478 5.478 0 11.001-10.956 5.478 5.478 0 010 10.955zM40.407 9.083l.001 9.559c0 .566.46 1.026 1.027 1.026h2.947v2.529h-2.947a3.56 3.56 0 01-3.555-3.555l-.007-9.559H35.14V6.63h2.732V2.37h2.534v4.26H44.9v2.454h-4.494zm85.812-2.499c-2.114 0-4.035.82-5.467 2.156V6.657h-2.532v21.885h2.532v-8.081a8.016 8.016 0 105.467-13.876zm0 13.494a5.477 5.477 0 01-5.467-5.15v-.656a5.477 5.477 0 115.467 5.806zm-49.578-.77a8.016 8.016 0 11.202-9.14l-2.428 1.262a5.322 5.322 0 10-.364 6.617l2.59 1.262zm36.472-12.063c.226-.372.63-.598 1.066-.598h.487c1.034 0 1.873.838 1.873 1.872v13.676h-2.582V10.61a4386.84 4386.84 0 00-6.737 10.989c-.227.371-.63.597-1.065.597h-.529c-.69 0-1.248-.559-1.248-1.248V10.58a1904.214 1904.214 0 00-7.031 11.499l-.07.116h-2.478V6.648h2.584v.031l-.06 10.722 6.192-10.155a1.25 1.25 0 011.067-.598h.49c1.033 0 1.871.835 1.873 1.868.005 2.857.015 8.063.015 8.82l6.153-10.09zm-20.186 7.342v-7.93h-2.531v2.087a8.016 8.016 0 100 11.686v1.765h2.531V14.59zm-8.016 5.478a5.478 5.478 0 110-10.955 5.478 5.478 0 010 10.955zM14.424.23v8.515a8.016 8.016 0 100 11.686v1.765h2.531V.23h-2.531zM8.94 20.066a5.477 5.477 0 110-10.955 5.477 5.477 0 010 10.955z" fill="#777" fill-rule="evenodd"></path></svg>
